<?xml version="1.0" standalone="no"?>
<!DOCTYPE svg PUBLIC "-//W3C//DTD SVG 20010904//EN"
 "http://www.w3.org/TR/2001/REC-SVG-20010904/DTD/svg10.dtd">
<svg version="1.0" xmlns="http://www.w3.org/2000/svg"
 width="618.000000pt" height="618.000000pt" viewBox="0 0 618.000000 618.000000"
 preserveAspectRatio="xMidYMid meet">
<metadata>
Created by potrace 1.14, written by Peter Selinger 2001-2017
</metadata>
<g transform="translate(0.000000,618.000000) scale(0.100000,-0.100000)"
fill="#000000" stroke="none">
<path d="M3107 5973 c-4 -4 -7 -192 -7 -417 1 -492 2 -446 -7 -446 -5 0 -7
194 -5 432 l3 431 -143 -7 c-173 -10 -177 -10 -303 -30 -186 -31 -414 -89
-427 -109 -4 -6 -10 -8 -14 -5 -15 16 -321 -111 -486 -203 -135 -75 -309 -190
-302 -200 3 -5 -3 -9 -13 -9 -49 -1 -408 -336 -547 -510 -37 -47 -70 -91 -74
-99 -3 -8 -13 -22 -22 -31 -33 -33 -169 -259 -233 -385 -69 -139 -157 -352
-157 -383 0 -10 -4 -22 -9 -27 -4 -6 -20 -53 -35 -105 -55 -202 -90 -417 -102
-643 l-7 -129 446 4 c246 2 447 0 447 -4 0 -9 35 -9 -479 -8 l-414 1 7 -128
c8 -143 29 -318 51 -423 8 -38 17 -82 20 -97 3 -16 18 -74 33 -130 21 -71 26
-105 19 -112 -8 -8 -6 -11 4 -11 10 0 28 -34 53 -102 53 -144 85 -214 178
-388 37 -69 125 -209 158 -250 11 -14 20 -33 20 -42 0 -10 6 -18 13 -19 6 0
41 -39 77 -86 70 -91 290 -319 379 -393 30 -25 66 -56 80 -70 14 -14 39 -32
55 -40 16 -8 31 -23 34 -32 2 -10 12 -18 22 -18 16 0 88 -47 118 -77 7 -7 17
-13 21 -13 4 0 21 -11 37 -25 15 -13 41 -27 56 -30 15 -4 44 -20 64 -36 44
-35 154 -89 181 -89 10 0 30 -8 43 -17 14 -10 30 -18 37 -19 30 -5 103 -38
103 -46 0 -6 6 -8 13 -5 17 6 87 -24 105 -46 10 -11 20 -13 35 -8 20 8 65 -4
77 -20 10 -13 175 -49 178 -39 2 6 10 6 21 0 10 -5 21 -7 24 -4 2 3 22 -2 42
-10 20 -9 48 -13 61 -10 13 3 24 2 24 -4 0 -19 106 -32 285 -34 l140 -2 2 359
c2 198 3 366 3 374 0 8 2 12 5 9 3 -3 6 -168 5 -365 0 -198 2 -367 5 -375 5
-12 22 -14 93 -11 48 3 90 9 93 15 3 5 66 11 140 13 142 3 247 19 264 40 5 7
42 20 82 29 39 9 84 21 99 26 18 7 29 7 33 1 13 -20 181 36 181 60 0 5 14 9
31 9 38 0 169 55 169 71 0 12 214 121 218 110 2 -5 9 -8 17 -5 8 3 12 11 10
17 -5 14 160 121 173 113 5 -3 19 4 31 15 15 14 32 20 51 17 26 -4 29 -1 34
31 6 39 53 84 106 103 17 5 30 14 30 20 0 13 26 38 40 38 15 0 41 26 33 33 -7
8 48 56 65 57 7 0 15 7 19 16 3 9 22 33 42 54 37 40 108 121 126 144 6 8 19
15 29 17 10 2 28 23 40 46 11 23 26 43 32 43 6 0 17 7 24 15 7 8 21 15 32 15
19 0 20 1 4 25 -16 24 -16 27 15 71 17 26 36 43 44 40 13 -5 36 34 40 69 4 30
114 223 132 229 8 4 13 13 10 21 -8 19 63 175 80 175 7 0 13 8 13 18 0 10 4
22 8 27 5 6 17 33 26 60 10 28 26 57 36 66 11 9 15 20 11 25 -18 19 -21 63 -6
78 8 8 15 26 15 40 0 13 6 31 13 38 6 7 12 38 12 68 1 31 8 70 18 89 9 19 17
47 17 63 0 15 4 28 8 28 13 0 33 127 32 205 -1 106 -1 104 12 188 10 67 10 80
-3 88 -8 5 -178 9 -393 9 -208 -1 -381 2 -384 5 -6 6 -35 6 406 5 383 -1 379
-1 375 55 -1 17 -5 84 -8 150 -6 129 -23 264 -34 280 -15 20 -42 139 -47 205
0 8 -9 33 -19 55 -11 23 -19 64 -19 97 -1 33 -6 60 -12 62 -6 2 -14 20 -18 39
-4 19 -13 40 -21 47 -8 7 -15 23 -15 36 0 12 -4 25 -9 28 -14 9 -91 174 -91
195 0 10 -7 24 -16 32 -9 7 -31 42 -50 78 -34 67 -70 134 -85 161 -5 8 -13 25
-18 37 -6 12 -16 25 -23 30 -17 10 -59 69 -62 87 -1 7 -15 26 -31 43 -17 17
-43 50 -60 73 -16 22 -47 57 -68 77 -21 20 -40 47 -43 60 -4 13 -10 23 -15 23
-6 0 -51 40 -102 89 -128 123 -193 181 -254 225 -29 21 -53 44 -53 51 0 7 -14
18 -32 24 -17 6 -74 39 -125 72 -171 110 -335 194 -530 269 -67 26 -113 49
-113 57 0 10 -5 11 -16 5 -10 -5 -44 0 -97 15 -188 55 -426 96 -632 108 -55 3
-111 8 -125 11 -14 3 -29 1 -33 -3z"/>
</g>
</svg>
